<mxfile host="app.diagrams.net" modified="2023-11-09T18:49:09.091Z" agent="Mozilla/5.0 (X11; Ubuntu; Linux x86_64; rv:109.0) Gecko/20100101 Firefox/119.0" version="22.1.0" etag="_A5wLNdzDzkMJTjyceSG" type="github">
  <diagram name="Page-1" id="dAKAnkq0Aby-mGBLI3X8">
    <mxGraphModel>
      <root>
        <mxCell id="0" />
        <mxCell id="1" parent="0" />
      </root>
    </mxGraphModel>
  </diagram>
</mxfile>
